<?xml version="1.0" encoding="UTF-8"?>
<!-- Generator: Adobe Illustrator 16.0.0, SVG Export Plug-In . SVG Version: 6.00 Build 0)  -->
<svg xmlns:cc="http://creativecommons.org/ns#" xmlns:dc="http://purl.org/dc/elements/1.1/" xmlns:rdf="http://www.w3.org/1999/02/22-rdf-syntax-ns#" width="351"
     height="351" enable-background="new 35.188 31.512 351.46 258.785" version="1.1"
     viewBox="35.188 31.512 351 351" xml:space="preserve"
     xmlns="http://www.w3.org/2000/svg">
<title>generated by pstoedit version:3.44 from NVBadge_2D.eps</title>


    <path d="m78.489 191.73s30.045-44.329 90.034-48.915v-16.082c-66.446 5.3363-123.99 61.613-123.99 61.613s32.589 94.21 123.99 102.84v-17.094c-67.071-8.4377-90.034-82.357-90.034-82.357zm90.034 48.361v15.655c-50.69-9.0372-64.761-61.73-64.761-61.73s24.339-26.962 64.761-31.334v17.178c-0.0307 0-0.0521-9e-3 -0.0774-9e-3 -21.216-2.546-37.79 17.273-37.79 17.273s9.2895 33.365 37.867 42.967m0-143.02v29.663c1.9506-0.14953 3.9011-0.27636 5.8624-0.34311 75.542-2.546 124.76 61.956 124.76 61.956s-56.531 68.741-115.43 68.741c-5.3977 0-10.451-0.50066-15.197-1.3418v18.343c4.0586 0.51534 8.2668 0.81841 12.658 0.81841 54.806 0 94.441-27.99 132.82-61.117 6.363 5.096 32.413 17.494 37.768 22.921-36.49 30.551-121.53 55.178-169.75 55.178-4.6474 0-9.1106-0.28171-13.498-0.70493v25.775h208.32v-219.89zm0 65.611v-19.865c1.9305-0.13485 3.8758-0.23898 5.8624-0.30173 54.322-1.7062 89.96 46.681 89.96 46.681s-38.493 53.461-79.766 53.461c-5.9398 0-11.265-0.95458-16.058-2.566v-60.231c21.148 2.5554 25.404 11.897 38.118 33.091l28.277-23.843s-20.642-27.071-55.438-27.071c-3.7823-1e-3 -7.4017 0.26435-10.956 0.64484"
          fill="#77b900" stroke-width="1.3351"/>
    <metadata><rdf:RDF><cc:Work rdf:about=""><dc:title>generated by pstoedit version:3.44 from NVBadge_2D.eps</dc:title></cc:Work></rdf:RDF></metadata></svg>
