<?xml version="1.0" encoding="UTF-8"?>
<svg id="Social_Icons" enable-background="new 0 0 128 128" version="1.1" viewBox="0 0 128 128" xml:space="preserve"
     xmlns="http://www.w3.org/2000/svg"><g id="_x37__stroke" transform="matrix(.91798 0 0 .91798 5.2494 5.2494)"><g id="Pocket" clip-rule="evenodd" fill-rule="evenodd"><rect width="128" height="128" fill="none"/><path
        id="Pocket_1_"
        d="m64.089 65.128c-0.324-0.301-0.57-0.523-0.809-0.752-7.747-7.442-15.485-14.893-23.243-22.323-3.554-3.403-9.008-3.278-12.394 0.24-3.335 3.465-3.289 8.953 0.218 12.342 10.053 9.712 20.135 19.395 30.234 29.06 3.365 3.22 8.546 3.187 11.959 8e-3 1.367-1.273 2.7-2.582 4.047-3.877 8.635-8.299 17.265-16.604 25.909-24.893 2.077-1.992 3.165-4.398 2.892-7.263-0.347-3.643-2.268-6.265-5.717-7.521-3.438-1.252-6.565-0.496-9.218 2.038-4.342 4.147-8.664 8.317-12.994 12.478-3.603 3.463-7.208 6.929-10.884 10.463zm-0.022-58.44c17.398 0 34.796-5e-3 52.194 3e-3 5.391 3e-3 10.025 3.481 11.368 8.535 0.212 0.798 0.345 1.643 0.346 2.467 8e-3 13.594 0.075 27.189-0.048 40.782-0.125 13.888-4.326 26.462-12.875 37.441-9.513 12.219-21.782 20.266-36.903 23.761-34.72 8.023-67.887-14.386-76.074-45.75-1.091-4.181-1.835-8.424-1.871-12.742-0.12-14.461-0.21-28.922-0.204-43.382 3e-3 -6.087 5.433-11.107 11.773-11.112 17.431-0.011 34.863-3e-3 52.294-3e-3z"
        fill="#f43b53"/></g></g></svg>
