<?xml version="1.0" encoding="UTF-8"?>
<!-- Created with Inkscape (http://www.inkscape.org/) -->
<svg xmlns:cc="http://creativecommons.org/ns#" xmlns:dc="http://purl.org/dc/elements/1.1/"
     xmlns:rdf="http://www.w3.org/1999/02/22-rdf-syntax-ns#" width="1e3" height="1e3"
     version="1.1" xmlns="http://www.w3.org/2000/svg">
    <metadata>
        <rdf:RDF>
            <cc:Work rdf:about="">
                <dc:format>image/svg+xml</dc:format>
                <dc:type rdf:resource="http://purl.org/dc/dcmitype/StillImage"/>
            </cc:Work>
        </rdf:RDF>
    </metadata>
    <g transform="translate(269 -239.38)">
        <g transform="matrix(5 0 0 5 -271.23 519.38)" fill="#36b4a7" fill-rule="evenodd" data-reactid="9">
            <g id="TuneIn-Marquee" fill="#36b4a7" data-reactid="10">
                <path id="TuneIn_Marquee"
                      d="m180.68 20.8c0-0.441-0.36-0.8-0.799-0.8h-4c-0.44 0-0.8 0.359-0.8 0.8v15.037c0 0.24-0.28 0.32-0.36 0.08l-5.479-15.197c-0.12-0.361-0.4-0.72-1-0.72h-4.759c-0.439 0-0.8 0.359-0.8 0.8v26.395c0 0.44 0.361 0.8 0.8 0.8h3.999c0.441 0 0.8-0.36 0.8-0.8v-13.838c0-0.24 0.28-0.319 0.36-0.08l5.44 14.038c0.119 0.32 0.399 0.68 1.079 0.68h4.72c0.439 0 0.799-0.36 0.799-0.8zm-22.439 22.595c0-0.439-0.359-0.799-0.8-0.799h-3.399c-0.24 0-0.4-0.159-0.4-0.4v-16.397c0-0.24 0.16-0.401 0.4-0.401h3c0.439 0 0.799-0.359 0.799-0.799v-3.799c0-0.441-0.36-0.8-0.799-0.8h-12.398c-0.44 0-0.801 0.359-0.801 0.8v3.799c0 0.44 0.361 0.799 0.801 0.799h2.999c0.24 0 0.4 0.161 0.4 0.401v16.397c0 0.241-0.16 0.4-0.4 0.4h-3.399c-0.44 0-0.8 0.36-0.8 0.799v3.8c0 0.44 0.36 0.8 0.8 0.8h13.197c0.441 0 0.8-0.36 0.8-0.8zm-35.797-17.395h-115.5c-0.276 0-0.5 0.225-0.5 0.5v55c0 0.276 0.224 0.5 0.5 0.5h115c0.276 0 0.5-0.224 0.5-0.5zm78-23v62c0 1.657-1.344 3-3 3h-69v17c0 1.657-1.343 3-3 3h-122c-1.657 0-3-1.343-3-3v-62c0-1.656 1.343-3 3-3h119v-17c0-1.657 1.344-3 3-3h72c1.656 0 3 1.343 3 3zm-95.725 59.396h-9.478c-0.24 0-0.401-0.16-0.401-0.4v-4.799c0-0.24 0.161-0.4 0.401-0.4h8.998c0.44 0 0.8-0.359 0.8-0.8v-3.999c0-0.44-0.36-0.8-0.8-0.8h-8.998c-0.24 0-0.401-0.16-0.401-0.4v-4.799c0-0.24 0.161-0.4 0.401-0.4h9.318c0.44 0 0.8-0.36 0.8-0.8v-3.999c0-0.441-0.36-0.8-0.8-0.8h-14.517c-0.44 0-0.8 0.359-0.8 0.8v26.395c0 0.44 0.36 0.8 0.8 0.8h14.677c0.44 0 0.8-0.36 0.8-0.8v-3.999c0-0.44-0.36-0.8-0.8-0.8zm-20.719-22.396h-4c-0.44 0-0.8 0.359-0.8 0.8v15.037c0 0.24-0.279 0.32-0.36 0.08l-5.479-15.197c-0.12-0.361-0.399-0.72-1-0.72h-4.759c-0.439 0-0.8 0.359-0.8 0.8v26.395c0 0.44 0.361 0.8 0.8 0.8h3.999c0.441 0 0.8-0.36 0.8-0.8v-13.838c0-0.24 0.28-0.319 0.36-0.08l5.44 14.038c0.119 0.32 0.399 0.68 1.079 0.68h4.72c0.439 0 0.799-0.36 0.799-0.8v-26.395c0-0.441-0.36-0.8-0.799-0.8zm-22.56 0h-4.039c-0.44 0-0.8 0.359-0.8 0.8v18.797c0 1.759-1.439 3.199-3.88 3.199-2.359 0-3.798-1.44-3.798-3.199v-18.797c0-0.441-0.361-0.8-0.8-0.8h-4.039c-0.441 0-0.801 0.359-0.801 0.8v18.797c0 4.839 4 8.838 9.438 8.838 5.52 0 9.519-3.999 9.519-8.838v-18.797c0-0.441-0.359-0.8-0.8-0.8zm-21.999 0.8v3.999c0 0.44-0.36 0.8-0.8 0.8h-4.999c-0.24 0-0.4 0.16-0.4 0.4v21.196c0 0.44-0.361 0.8-0.8 0.8h-3.999c-0.44 0-0.8-0.36-0.8-0.8v-21.196c0-0.24-0.16-0.4-0.4-0.4h-4.999c-0.441 0-0.8-0.36-0.8-0.8v-3.999c0-0.441 0.359-0.8 0.8-0.8h16.397c0.44 0 0.8 0.359 0.8 0.8z"
                      fill="#36b4a7" data-reactid="11"/>
            </g>
        </g>
    </g>
</svg>
